<svg width="76" height="76" viewBox="0 0 76 76" fill="none" xmlns="http://www.w3.org/2000/svg">
<g clip-path="url(#clip0_40_6)">
<path fill-rule="evenodd" clip-rule="evenodd" d="M35.5707 1.45373C27.2336 2.14496 20.1284 5.07794 14.0166 10.3507C10.2529 13.5978 7.38592 17.3425 5.1053 21.9902C-2.41995 37.326 1.74548 55.8426 15.1392 66.5935C18.0962 68.967 22.4502 71.3881 25.8599 72.5546C40.7378 77.6451 56.8294 73.0257 66.5937 60.8611C68.9672 57.904 71.3883 53.55 72.5548 50.1403C77.2487 36.4217 73.7156 21.5692 63.3988 11.6492C60.5737 8.93288 57.714 6.93271 54.1346 5.16976C49.8604 3.06456 45.6731 1.90089 40.9281 1.49958C39.5389 1.38209 36.7253 1.35792 35.5707 1.45373ZM15.0786 13.1503C13.7254 13.5275 12.693 14.3972 12.145 15.6211C11.9436 16.0712 11.1728 19.9444 9.528 28.7717C7.51226 39.5902 7.20439 41.4038 7.25436 42.1652C7.38617 44.1737 8.8359 45.7039 10.983 46.1009C11.7123 46.2357 12.6069 46.1237 13.38 45.8006L13.816 45.6185L13.8599 52.3683C13.9075 59.71 13.8847 59.4515 14.6604 61.4089C15.0289 62.339 15.8485 63.6667 16.6156 64.5766C17.7639 65.939 19.8147 67.2225 21.8658 67.8629L22.9871 68.213L37.5019 68.2509C47.8697 68.2778 52.2997 68.2481 53.0075 68.147C55.3199 67.8162 57.415 66.7708 59.1166 65.0984C60.2653 63.9695 60.9217 63.0288 61.5066 61.6728C62.3728 59.6649 62.3461 59.9455 62.39 52.4213C62.4119 48.6695 62.4585 45.6 62.4934 45.6C62.5283 45.6 62.7236 45.6862 62.9276 45.7918C63.5468 46.112 64.5856 46.2498 65.3352 46.1112C67.364 45.7362 68.7861 44.263 69.0806 42.2312C69.1435 41.7968 68.6409 38.8878 66.7779 28.9049C65.4411 21.7416 64.2924 15.902 64.1618 15.6048C63.8013 14.7851 62.7823 13.7904 61.8869 13.3841C61.2547 13.0972 60.9393 13.0326 60.1773 13.0344C59.332 13.0363 58.5349 13.2468 51.8316 15.2395L44.4203 17.4426H31.8767L24.474 15.2636C20.4024 14.065 16.7763 13.0564 16.416 13.0222C16.02 12.9847 15.491 13.0353 15.0786 13.1503ZM16.1407 17.5854C16.0094 17.9658 11.7061 41.285 11.7455 41.4031C11.769 41.4736 15.3386 36.9383 19.6781 31.3246C24.0176 25.7111 27.616 21.0569 27.6747 20.9821C27.7481 20.8887 26.0232 20.3295 22.1449 19.1896C19.0448 18.2784 16.4388 17.5068 16.3537 17.4749C16.2687 17.4429 16.1728 17.4927 16.1407 17.5854ZM54.3361 19.1276C51.2262 20.0464 48.6522 20.8278 48.616 20.8639C48.5799 20.9 48.6344 21.0281 48.7371 21.1485C48.8398 21.2688 52.4449 25.924 56.7485 31.4933C61.0521 37.0626 64.5878 41.6039 64.6056 41.5851C64.6235 41.5663 63.6694 36.3648 62.4857 30.0262C61.3018 23.6877 60.2931 18.2634 60.2443 17.9721C60.1953 17.6809 60.1182 17.4459 60.0729 17.4497C60.0275 17.4537 57.446 18.2087 54.3361 19.1276ZM32.2337 22.3328C31.9993 22.6241 28.7404 26.8293 24.9916 31.6778L18.1754 40.4933L18.2183 49.4319C18.2605 58.2554 18.2645 58.3811 18.5354 59.1893C19.0696 60.7841 20.3159 62.3087 21.6722 63.0264C23.1107 63.7877 23.1367 63.7902 29.7999 63.7902H35.8822V60.3734L33.8941 58.3721C32.6897 57.1597 31.8301 56.1893 31.7138 55.9107C31.0843 54.4044 32.1346 52.8263 33.7664 52.8263C34.5369 52.8263 34.9349 53.0964 36.6336 54.7714L38.1948 56.3108L39.7483 54.7424C40.6028 53.8799 41.4823 53.0959 41.7028 53.0002C42.9842 52.4441 44.5467 53.2967 44.6974 54.6343C44.8312 55.8209 44.7537 55.9469 42.4746 58.2497L40.3674 60.3788V63.7902H46.4497C53.1433 63.7902 53.1262 63.7918 54.633 62.9997C55.6571 62.4612 56.7787 61.3095 57.2861 60.2751C58.0489 58.7207 58.0546 58.6359 58.0571 49.0866L58.0592 40.4255L51.0742 31.3947C47.2325 26.4278 43.981 22.2379 43.8488 22.0836L43.6084 21.8033H32.6595L32.2337 22.3328ZM27.1495 41.9239C26.3539 42.1793 25.5124 42.9567 25.17 43.7526C24.9396 44.2886 24.8991 44.5644 24.9458 45.2836C25.0116 46.2985 25.2341 46.7937 25.9261 47.4653C27.2308 48.7313 29.4922 48.6106 30.6903 47.211C31.1583 46.6641 31.5215 45.7295 31.5215 45.0719C31.5215 42.879 29.2557 41.2475 27.1495 41.9239ZM46.9174 41.9814C45.3375 42.6182 44.453 44.3405 44.9059 45.8987C45.3456 47.4112 46.5584 48.341 48.092 48.341C50.9952 48.341 52.4883 44.8936 50.4843 42.8173C49.5228 41.8211 48.1268 41.4939 46.9174 41.9814Z" fill="#FFFBFF"/>
<path fill-rule="evenodd" clip-rule="evenodd" d="M15.0786 13.1503C13.7254 13.5276 12.693 14.3972 12.145 15.6212C11.9436 16.0712 11.1728 19.9445 9.528 28.7718C7.51226 39.5902 7.2044 41.4039 7.25436 42.1652C7.38617 44.1737 8.8359 45.704 10.983 46.1009C11.7123 46.2357 12.6069 46.1237 13.38 45.8006L13.816 45.6185L13.8599 52.3683C13.9075 59.71 13.8847 59.4515 14.6604 61.4089C15.0289 62.339 15.8485 63.6668 16.6156 64.5766C17.7639 65.939 19.8147 67.2226 21.8658 67.863L22.9871 68.2131L37.5019 68.2509C47.8698 68.2778 52.2997 68.2482 53.0075 68.147C55.3199 67.8162 57.415 66.7708 59.1166 65.0984C60.2654 63.9695 60.9217 63.0289 61.5066 61.6728C62.3728 59.6649 62.3461 59.9455 62.39 52.4214C62.4119 48.6696 62.4585 45.6001 62.4934 45.6001C62.5283 45.6001 62.7236 45.6863 62.9276 45.7918C63.5468 46.112 64.5856 46.2498 65.3352 46.1113C67.364 45.7362 68.7861 44.2631 69.0806 42.2313C69.1435 41.7968 68.6409 38.8879 66.7779 28.905C65.4411 21.7417 64.2924 15.902 64.1618 15.6049C63.8014 14.7852 62.7823 13.7904 61.8869 13.3842C61.2547 13.0972 60.9393 13.0327 60.1773 13.0344C59.3321 13.0363 58.5349 13.2469 51.8316 15.2396L44.4204 17.4427H31.8767L24.474 15.2636C20.4024 14.065 16.7763 13.0565 16.416 13.0222C16.02 12.9847 15.491 13.0353 15.0786 13.1503ZM16.1407 17.5855C16.0094 17.9658 11.7061 41.285 11.7455 41.4031C11.769 41.4736 15.3386 36.9383 19.6781 31.3246C24.0176 25.7111 27.616 21.0569 27.6747 20.9822C27.7481 20.8887 26.0232 20.3296 22.1449 19.1897C19.0448 18.2784 16.4388 17.5068 16.3537 17.475C16.2687 17.4429 16.1728 17.4928 16.1407 17.5855ZM54.3361 19.1276C51.2262 20.0465 48.6522 20.8278 48.6161 20.8639C48.5799 20.9001 48.6344 21.0281 48.7372 21.1485C48.8398 21.2688 52.445 25.924 56.7486 31.4933C61.0521 37.0626 64.5878 41.604 64.6056 41.5851C64.6235 41.5663 63.6694 36.3648 62.4857 30.0263C61.3018 23.6878 60.2931 18.2635 60.2443 17.9722C60.1953 17.6809 60.1182 17.4459 60.0729 17.4498C60.0275 17.4538 57.446 18.2088 54.3361 19.1276ZM32.2337 22.3328C31.9993 22.6241 28.7404 26.8293 24.9916 31.6779L18.1754 40.4934L18.2183 49.432C18.2605 58.2554 18.2645 58.3811 18.5354 59.1894C19.0696 60.7841 20.3159 62.3087 21.6722 63.0265C23.1107 63.7877 23.1367 63.7902 29.7999 63.7902H35.8822V60.3735L33.8941 58.3722C32.6897 57.1598 31.8301 56.1894 31.7138 55.9108C31.0843 54.4045 32.1346 52.8263 33.7664 52.8263C34.5369 52.8263 34.9349 53.0964 36.6336 54.7714L38.1948 56.3108L39.7483 54.7425C40.6028 53.8799 41.4823 53.0959 41.7028 53.0002C42.9842 52.4442 44.5467 53.2967 44.6974 54.6343C44.8312 55.8209 44.7538 55.9469 42.4746 58.2497L40.3674 60.3788V63.7902H46.4497C53.1433 63.7902 53.1262 63.7918 54.633 62.9997C55.6571 62.4612 56.7787 61.3095 57.2862 60.2752C58.0489 58.7208 58.0546 58.6359 58.0571 49.0866L58.0592 40.4256L51.0742 31.3948C47.2325 26.4279 43.981 22.2379 43.8489 22.0837L43.6084 21.8033H32.6595L32.2337 22.3328ZM27.1495 41.9239C26.3539 42.1793 25.5124 42.9568 25.17 43.7526C24.9396 44.2886 24.8991 44.5645 24.9458 45.2836C25.0116 46.2985 25.2341 46.7938 25.9261 47.4653C27.2308 48.7314 29.4922 48.6107 30.6903 47.211C31.1584 46.6642 31.5215 45.7295 31.5215 45.0719C31.5215 42.879 29.2557 41.2475 27.1495 41.9239ZM46.9174 41.9815C45.3375 42.6182 44.453 44.3406 44.9059 45.8987C45.3456 47.4112 46.5584 48.341 48.092 48.341C50.9952 48.341 52.4883 44.8936 50.4843 42.8173C49.5228 41.8211 48.1268 41.4939 46.9174 41.9815Z" fill="#04A777"/>
<path fill-rule="evenodd" clip-rule="evenodd" d="M33.6394 0.815658C26.6047 1.69763 20.0813 4.4284 14.5771 8.79516C13.1124 9.95721 9.70141 13.3984 8.59878 14.8263C4.42053 20.2373 2.02678 25.8367 0.929137 32.7673C0.608567 34.791 0.541413 39.8311 0.804547 42.1116C1.62709 49.2417 4.34802 55.8177 8.79514 61.423C9.95719 62.8877 13.3984 66.2988 14.8263 67.4014C20.2372 71.5796 25.8367 73.9734 32.7673 75.071C34.7902 75.3915 39.8307 75.4588 42.1115 75.1959C49.2274 74.3757 55.8267 71.6449 61.423 67.205C62.8877 66.043 66.2987 62.6018 67.4014 61.1739C71.5796 55.7629 73.9734 50.1635 75.071 43.2329C75.3914 41.2099 75.4587 36.1695 75.1958 33.8886C74.3757 26.7728 71.6449 20.1735 67.205 14.5771C66.0429 13.1125 62.6018 9.70143 61.1738 8.59881C55.7631 4.4208 50.185 2.03577 43.2329 0.927914C41.4 0.63575 35.6138 0.568097 33.6394 0.815658ZM34.9476 1.44907C30.8543 1.88414 27.5992 2.67467 24.1706 4.06634C17.125 6.92606 11.0253 12.0567 6.90324 18.5906C5.8046 20.332 4.25432 23.5145 3.5479 25.4788C2.79276 27.5787 2.07549 30.4047 1.72614 32.656C1.34988 35.0821 1.31337 40.6039 1.65836 42.9214C2.96158 51.6749 6.87869 59.1249 13.2947 65.0529C15.8031 67.3705 18.6226 69.2899 21.8656 70.8877C25.2404 72.5503 28.8529 73.684 32.656 74.274C35.082 74.6503 40.6039 74.6868 42.9214 74.3418C51.6748 73.0386 59.1248 69.1215 65.0528 62.7055C67.3704 60.1971 69.2899 57.3776 70.8876 54.1345C72.5503 50.7597 73.6839 47.1473 74.274 43.3441C74.6503 40.9181 74.6868 35.3963 74.3418 33.0788C73.0386 24.3253 69.1214 16.8753 62.7054 10.9473C60.197 8.6297 57.3776 6.71027 54.1345 5.11252C51.7645 3.94499 49.5848 3.13989 47.0213 2.48542C43.975 1.7076 42.1537 1.48172 38.5607 1.43587C36.8476 1.41394 35.2217 1.41992 34.9476 1.44907Z" fill="#03312E"/>
</g>
<defs>
<clipPath id="clip0_40_6">
<rect width="76" height="76" fill="white"/>
</clipPath>
</defs>
</svg>
